<svg xmlns="http://www.w3.org/2000/svg" xmlns:xlink="http://www.w3.org/1999/xlink" width="83" height="69" viewBox="0 0 83 69"><defs><clipPath id="a"><rect width="83" height="69" transform="translate(1321 8043)" fill="red"/></clipPath></defs><g transform="translate(-1321 -8043)" clip-path="url(#a)"><path d="M70.33,45.17h0v-.4C68.744,18.148,64.238,4.384,56.911,3.832,46.688,3.127,41.384,16.86,40.327,20.064a8.606,8.606,0,0,0-4.514,0,4.1,4.1,0,0,0-.6.2C33.889,16.431,28.647,3.633,18.73,4.338,8.162,5.1,6.851,32.3,6.415,41.231,6.3,43.124,6.261,44.3,6.261,44.3a.5.5,0,0,0,.475.513h0a.5.5,0,0,0,.5-.467c0-.552.069-1.3.115-2.192l.038-.881C8.545,17.9,12.377,5.809,18.807,5.365,28.18,4.706,33.176,17.4,34.341,20.8a5.365,5.365,0,0,0-.766.713,6.2,6.2,0,0,0-1.387,2.751l-.36,1.617a.5.5,0,0,0,0,.2A11.112,11.112,0,0,0,30.762,27.7c-1.035-.682-2.6-1.6-2.675-1.648A.5.5,0,0,0,27.95,26L25.7,25.474h-.13l.49-.95a.5.5,0,0,0-.889-.444l-.575,1.134a12.261,12.261,0,0,0-1.341-.176,1.173,1.173,0,0,1-.812-.391l-2.161-2.422a.989.989,0,0,0-.766-.345,1.019,1.019,0,0,0-.766,1.648l2.3,2.943a2.146,2.146,0,0,0,1.127.766l1.908.529-.452.621a.5.5,0,0,0,.766.582l.674-.927.3.084c.705.46,3.6,1.885,4.414,2.3a3.725,3.725,0,0,0,0,1.173.483.483,0,0,0-.1.207,66.061,66.061,0,0,0-1.1,7.357c-.766-.674-2.2-1.893-2.882-2.345-.874-.582-2.544.437-5.319,2.514l-.261.192-.621-.376-1.019-.6a.5.5,0,1,0-.506.858L19,40l.276.169c-1.272,1.019-3.357,2.8-3.625,3.066L11.94,45.661a.912.912,0,0,0,.943,1.533l3.679-2.077a26.915,26.915,0,0,0,3.855-2.2l.95,1.372a.5.5,0,0,0,.82-.567l-.92-1.333,1.433-.9.95,1.425a.5.5,0,0,0,.82-.567l-.927-1.341.981-.667,3.832,4.453a16.861,16.861,0,0,0,.276,2.452,16.155,16.155,0,0,0,.406,1.579c-.092.245-.353.943-.621,1.77a23.244,23.244,0,0,0-4.866-1.127,1.939,1.939,0,0,0-1.533.475c-.927.766-1.471,2.621-1.609,5.418l-2.5-.467a.5.5,0,0,0-.184.973l2.644.49v.529a7.237,7.237,0,0,1-.046,1.042l-2.368.613a.5.5,0,0,0,.245.958l2.2-.567v.69a15.03,15.03,0,0,1-.253,3.9l-3.832,7.947a.912.912,0,0,0,.812,1.333h.046a.912.912,0,0,0,.766-.437l3.725-6.131v-.054l.881-1.931a.5.5,0,0,0,.038-.153l.406-3.955,1.579.866a.5.5,0,0,0,.475-.874L23.106,59.08l.153-1.41,1.724.943a.5.5,0,1,0,.475-.874L23.382,56.6l.307-2.82,5.687,5.02c.59,1.464,1.134,2.728,1.265,3.02a.5.5,0,0,0,.176.215l1,.667a15.066,15.066,0,0,1,1.333,1.954c-3.242,4.706-2.621,5.365-2.383,5.572a.943.943,0,0,0,.682.276h.222a4.824,4.824,0,0,0,2.514-2.3,16.27,16.27,0,0,1,1.219-2.023,21.955,21.955,0,0,0,2.368,1.977.5.5,0,0,0,.291.092h.046l.644-.061A.5.5,0,0,0,39,68.1c.92-.667,1.724-1.3,2.3-1.786a8.246,8.246,0,0,1,1.41,1.816,4.588,4.588,0,0,0,2.514,2.3h.222a.943.943,0,0,0,.682-.276c.238-.238.866-.874-2.575-5.48a14.6,14.6,0,0,1,1.617-2.3l1.012-.674a.5.5,0,0,0,.184-.222c.138-.322.766-1.885,1.4-3.564l5.112-4.33.307,2.836-2.069,1.134a.5.5,0,1,0,.475.874l1.732-.95.169,1.4-1.962,1.073a.5.5,0,1,0,.475.874l1.579-.866.429,3.932a.5.5,0,0,0,.038.153l.881,1.931v.054l3.725,6.131a.912.912,0,0,0,.766.437h.046a.912.912,0,0,0,.812-1.326l-3.924-7.886a34.489,34.489,0,0,1-.123-3.931q0-.333,0-.69l2.2.567a.5.5,0,0,0,.245-.958l-2.445-.636V56.206l2.652-.49a.5.5,0,0,0-.184-.973l-2.483.46c0-1.533-.276-4.215-1.533-5.365a2.031,2.031,0,0,0-1.64-.529,20.233,20.233,0,0,0-4.6,1.081c-.215-.72-.406-1.272-.445-1.364a15.4,15.4,0,0,0,.452-2.429,18.724,18.724,0,0,0,0-2.828l3.364-3.916.973.651-.9,1.311a.5.5,0,1,0,.82.567l.935-1.41,1.433.9L54.16,43.2a.5.5,0,1,0,.82.567l.966-1.379a26.908,26.908,0,0,0,3.893,2.184l3.679,2.069a.912.912,0,0,0,.943-1.533l-3.709-2.422c-.268-.23-2.353-2.023-3.625-3.066l.276-.169,1.019-.6A.5.5,0,1,0,57.915,38l-1.019.6-.621.376-.33-.238-1.1-.8.337-.506.667-.973a.5.5,0,0,0-.82-.559l-.667.973-.337.49c-1.755-1.173-2.736-1.487-3.334-1.081s-2.108,1.479-2.874,2.046c-.475-3.119-1.058-5.893-1.2-6.537a3.64,3.64,0,0,0,0-1.64c1.05-.467,3.794-1.694,4.483-2.131l.146-.038h.184l.644.881a.5.5,0,0,0,.766-.582l-.429-.59,1.885-.559a2.177,2.177,0,0,0,1.127-.766l2.3-2.943a1.019,1.019,0,0,0-.766-1.648.958.958,0,0,0-.766.345l-2.161,2.414a1.173,1.173,0,0,1-.812.391,12.262,12.262,0,0,0-1.341.176l-.536-1.119a.5.5,0,0,0-.889.444l.429.874h-.123l-2.245.529-.107.038c-.084.038-1.809.9-2.836,1.533a9.963,9.963,0,0,0-1.1-1.533s0,0,0-.038c-.046-.307-.506-3-1.533-4.123a6.223,6.223,0,0,0-1.7-1.326c1-2.966,6.039-16.24,15.58-15.565,4.644.33,10.576,7.541,12.477,39.982v.4h0v.628a.5.5,0,0,0,.5.467h0a.5.5,0,0,0,.467-.521A1.273,1.273,0,0,0,70.33,45.17ZM45.638,31.59c-.414.552-4.683,1.87-7.028,2.177h-.046l-.176.038h-.36l-.176-.038h-.046c-2.345-.307-6.614-1.625-7.028-2.169s.36-3.433,2.391-5.556a7.426,7.426,0,0,1,4.8-2.3,8.829,8.829,0,0,1,5.288,2.3C45.3,28.042,45.983,31.008,45.638,31.59Zm1.8,14.891A15.984,15.984,0,0,1,39.867,58.39a5.188,5.188,0,0,1-1.127.207A10.217,10.217,0,0,0,40.457,54l.054-.284c1.356-7.219-.973-16.707-1.579-18.96a27.54,27.54,0,0,0,6.9-2.046C46.312,35.207,47.791,42.917,47.439,46.481ZM25.881,27.275a.5.5,0,0,0-.169-.084l-.713-.2-2.6-.713a1.157,1.157,0,0,1-.605-.406L19.5,22.9h.038l2.138,2.391a2.161,2.161,0,0,0,1.487.72,11.5,11.5,0,0,1,1.3.176.475.475,0,0,0,.107.046L25,26.31l.467.084,2.177.513c.322.192,1.793,1.065,2.682,1.663-.115.276-.215.552-.3.82C28.463,28.655,26.21,27.521,25.881,27.275Zm4.6,5.365a26.364,26.364,0,0,0,7.15,2.138l.215.046H37.9c.483,1.8,2.951,11.572,1.609,18.7l-.054.291c-.207,1.173-.766,4.276-2.429,4.836a1.111,1.111,0,0,1-.812-.215c-2.154-1.249-5.755-6.989-6.629-11.373s.49-12.224.912-14.462Zm-6.131,6.667-1.678,1.081h-.077l-2.3,1.418h0a29.49,29.49,0,0,1-4.108,2.337l-.107.046-1.533.881,1.663-1.088.054-.038s3.066-2.652,4.169-3.464h0l.536-.4c2.376-1.778,3.786-2.606,4.177-2.483.889.59,3.272,2.7,3.3,2.721h0c-.084,1-.084,1.97-.084,2.912L25.03,39.4a.5.5,0,0,0-.682-.13Zm-.705,13.128a.5.5,0,0,0-.82.314l-.452,4.108L22.1,59.333l-.5,4.6-.835,1.793-2.874,4.782L21,64c.084-.161.353-.966.353-4.338V58.321a.491.491,0,0,0-.084-.261,7.821,7.821,0,0,1,.054-1.088A8.2,8.2,0,0,0,21.367,56h0c.077-2.751.536-4.6,1.288-5.273a.973.973,0,0,1,.766-.238,22.508,22.508,0,0,1,4.7,1.088,8.906,8.906,0,0,0-.376,2.069,12.967,12.967,0,0,0,.874,3.142ZM33.3,67.763a4.253,4.253,0,0,1-1.724,1.763A19.726,19.726,0,0,1,34,65.2l.682.261A17.925,17.925,0,0,0,33.3,67.755Zm10.384-.077a8.821,8.821,0,0,0-1.533-2.054l.238-.207.414-.207a21.068,21.068,0,0,1,2.606,4.192,4.177,4.177,0,0,1-1.724-1.724Zm9.48-17.412a1.027,1.027,0,0,1,.858.284c.766.72,1.257,2.667,1.219,5.211h0V59.4a26.125,26.125,0,0,0,.153,4.207.514.514,0,0,0,0,.1L58.513,70l-2.728-4.506-.835-1.832-.467-4.276a.491.491,0,0,0,0-.169L54.16,56.6h0l-.452-4.108a.5.5,0,0,0-.82-.322L48.4,56a10.453,10.453,0,0,0,.651-2.406,10.116,10.116,0,0,0-.391-2.3,19.282,19.282,0,0,1,4.506-1.019Zm-5.081,3.318a18.446,18.446,0,0,1-1.142,3.832.49.49,0,0,0-.084.222c-.429,1.157-.912,2.36-1.318,3.349l-.927.621-.077.061a13.94,13.94,0,0,0-1.755,2.429l-.927.46-.107.069s-1.356,1.188-3.2,2.529h-.322a18.454,18.454,0,0,1-2.751-2.452.5.5,0,0,0-.2-.138l-1.249-.429a12.952,12.952,0,0,0-1.533-2.177l-.077-.061-.912-.6c-1.1-2.521-2.774-6.706-2.774-7.664a9.373,9.373,0,0,1,.46-2.215h0c.115-.376.23-.766.353-1.088,1.479,3.832,4.123,7.771,6.177,8.967a2.5,2.5,0,0,0,1.019.353.483.483,0,0,0,.268.092,12.811,12.811,0,0,0,3.318-.467,16.423,16.423,0,0,0,7.127-8.706,13.028,13.028,0,0,1,.621,3.012Zm3.15-16.485c.046,0,.536-.115,2.652,1.349l1.471,1.081.605.444h0c1.088.812,4.138,3.433,4.169,3.464l.054.038,1.663,1.088-1.533-.881-.107-.046A29.452,29.452,0,0,1,56.1,41.308h0L53.8,39.89a.491.491,0,0,0-.192-.069c-.72-.46-1.533-1.05-1.571-1.058a.5.5,0,0,0-.659.084l-3.066,3.518c-.092-.958-.207-1.954-.345-2.943.46-.337,2.46-1.786,3.257-2.314ZM48.8,26.823l2.192-.513.5-.1.383-.077h0a11.764,11.764,0,0,1,1.387-.192,2.161,2.161,0,0,0,1.487-.728L56.9,22.784v.046l-2.3,2.943a1.18,1.18,0,0,1-.613.406l-2.337.644a.491.491,0,0,0-.2,0l-.713.2a.5.5,0,0,0-.169.084c-.322.245-2.613,1.3-4.238,2.016a6.2,6.2,0,0,0-.322-.766C46.887,27.781,48.489,26.969,48.8,26.823ZM42.22,22.4a6.4,6.4,0,0,1,.989,2.3,9.557,9.557,0,0,0-5.234-1.977A7.963,7.963,0,0,0,33.1,24.739l.061-.276a5.2,5.2,0,0,1,1.173-2.3,3.571,3.571,0,0,1,.851-.766h0a3.3,3.3,0,0,1,.835-.353,7.3,7.3,0,0,1,4.414.107h.161a5.288,5.288,0,0,1,1.617,1.242Z" transform="translate(1324.203 8039.194)" fill="red"/></g></svg>