<svg xmlns="http://www.w3.org/2000/svg" xmlns:xlink="http://www.w3.org/1999/xlink" width="200" height="140" viewBox="0 0 200 140"><defs><clipPath id="a"><rect width="200" height="140" transform="translate(1057 5034)" fill="#d30000"/></clipPath></defs><g transform="translate(-1057 -5034)" clip-path="url(#a)"><g transform="translate(1082.333 5029.333)"><path d="M142.333,60.667H126a7.021,7.021,0,0,0-7-7h-9.333a7.021,7.021,0,0,0-7,7H93.333V51.333a7.021,7.021,0,0,0,7-7V35a7.021,7.021,0,0,0-7-7V7A2.333,2.333,0,0,0,91,4.667H58.333A2.333,2.333,0,0,0,56,7V28a7.021,7.021,0,0,0-7,7v9.333a7.021,7.021,0,0,0,7,7v9.333H46.667a7.021,7.021,0,0,0-7-7H30.333a7.021,7.021,0,0,0-7,7H7A2.333,2.333,0,0,0,4.667,63V95.667A2.333,2.333,0,0,0,7,98H23.333a7.021,7.021,0,0,0,7,7h9.333a7.021,7.021,0,0,0,7-7h56a7.021,7.021,0,0,0,7,7H119a7.021,7.021,0,0,0,7-7h16.333a2.333,2.333,0,0,0,2.333-2.333V63A2.333,2.333,0,0,0,142.333,60.667Zm-119,32.667h-14v-28h14ZM42,98a2.333,2.333,0,0,1-2.333,2.333H30.333A2.333,2.333,0,0,1,28,98V60.667a2.333,2.333,0,0,1,2.333-2.333h9.333A2.333,2.333,0,0,1,42,60.667ZM60.667,9.333h28V28h-28Zm-7,35V35A2.333,2.333,0,0,1,56,32.667H93.333A2.333,2.333,0,0,1,95.667,35v9.333a2.333,2.333,0,0,1-2.333,2.333H56A2.333,2.333,0,0,1,53.667,44.333Zm28,49H77V91.957l4.667-4.667Zm21,0H86.333V81.667a2.3,2.3,0,0,0-1.447-2.147,2.333,2.333,0,0,0-2.543.49L73.01,89.343A2.41,2.41,0,0,0,72.333,91v2.333H46.667v-28H58.333A2.333,2.333,0,0,0,60.667,63V51.333h28V63A2.333,2.333,0,0,0,91,65.333h11.667ZM121.333,98A2.333,2.333,0,0,1,119,100.333h-9.333A2.333,2.333,0,0,1,107.333,98V60.667a2.333,2.333,0,0,1,2.333-2.333H119a2.333,2.333,0,0,1,2.333,2.333ZM140,93.333H126v-28h14Z" fill="#d30000"/><path d="M89.08,127.008c-1.528,2.21-5.08,7.677-5.08,10.659a7,7,0,1,0,14,0c0-2.982-3.551-8.449-5.08-10.659a2.422,2.422,0,0,0-3.841,0ZM91,140a2.333,2.333,0,0,1-2.333-2.333A17.4,17.4,0,0,1,91,132.657a17.411,17.411,0,0,1,2.333,5.01A2.333,2.333,0,0,1,91,140Z" fill="#d30000"/><path d="M91,114.333c0-2.982-3.551-8.449-5.08-10.659a2.422,2.422,0,0,0-3.841,0c-1.528,2.21-5.08,7.677-5.08,10.659a7,7,0,1,0,14,0Zm-9.333,0A17.4,17.4,0,0,1,84,109.324a17.412,17.412,0,0,1,2.333,5.01,2.333,2.333,0,1,1-4.667,0Z" fill="#d30000"/><path d="M70.413,120.008c-1.528,2.21-5.08,7.677-5.08,10.659a7,7,0,1,0,14,0c0-2.982-3.551-8.449-5.08-10.659a2.422,2.422,0,0,0-3.841,0ZM72.333,133A2.333,2.333,0,0,1,70,130.667a17.4,17.4,0,0,1,2.333-5.01,17.411,17.411,0,0,1,2.333,5.01A2.333,2.333,0,0,1,72.333,133Z" fill="#d30000"/><path d="M14,70h4.667v4.667H14Z" fill="#d30000"/><path d="M51.333,84H56v4.667H51.333Z" fill="#d30000"/><path d="M60.667,84H70v4.667H60.667Z" fill="#d30000"/><path d="M130.667,70h4.667v4.667h-4.667Z" fill="#d30000"/></g></g></svg>