<svg xmlns="http://www.w3.org/2000/svg" xmlns:xlink="http://www.w3.org/1999/xlink" width="200" height="140" viewBox="0 0 200 140"><defs><clipPath id="a"><rect width="200" height="140" transform="translate(899 7876)" fill="red"/></clipPath></defs><g transform="translate(-899 -7876)" clip-path="url(#a)"><path d="M193.375,128.618h-7.162a15.967,15.967,0,0,0-15.948,15.95v13.984a42.608,42.608,0,0,1-19.277,35.623l-9.4-14.6a25.219,25.219,0,0,0,11.312-21.022V144.571a33.358,33.358,0,0,1,33.318-33.318h7.162a2.029,2.029,0,0,0,0-4.057h-7.162a37.419,37.419,0,0,0-37.376,37.376v13.984a21.249,21.249,0,0,1-14.771,20.205.442.442,0,0,0-.068.011,21.485,21.485,0,0,1-2.989.7q-.191.032-.381.057a21.276,21.276,0,0,1-5.934.011c-.219-.032-.438-.062-.657-.1a21.021,21.021,0,0,1-17.614-20.879V86.528h3.825a2.029,2.029,0,0,0,2.029-2.029V67.272a2.029,2.029,0,0,0-2.029-2.029H77.107a2.029,2.029,0,0,0-2.029,2.029V84.5a2.029,2.029,0,0,0,2.029,2.029h3.825v72.025A46.66,46.66,0,0,0,103.4,198.389c.027.019.041.051.065.065.17.1.349.189.519.292.733.433,1.471.857,2.231,1.252.157.081.319.151.479.23a45.1,45.1,0,0,0,4.42,1.942c.509.195,1.017.387,1.531.563.66.225,1.32.438,1.991.633.876.257,1.761.479,2.651.684.571.13,1.144.254,1.726.362q1.6.3,3.219.492c.4.049.8.089,1.2.127,1.379.124,2.764.211,4.155.211h.035l.073,0c1.333-.005,2.659-.084,3.984-.2.5-.043.987-.095,1.477-.154.841-.1,1.674-.235,2.507-.384,1.231-.214,2.434-.484,3.627-.793.316-.084.638-.157.958-.249.958-.268,1.891-.571,2.821-.9a.674.674,0,0,0,.078-.03,46.73,46.73,0,0,0,31.168-43.981V144.566a11.906,11.906,0,0,1,11.89-11.893h7.162a2.027,2.027,0,0,0,.008-4.055ZM79.136,69.3H108.21v13.17H79.136Zm5.853,89.252V86.528h17.368v72.025a25.21,25.21,0,0,0,11.371,21.057l-9.51,14.536A42.606,42.606,0,0,1,84.989,158.553Z" transform="translate(863.759 7810.756)" fill="red"/></g></svg>