<svg xmlns="http://www.w3.org/2000/svg" xmlns:xlink="http://www.w3.org/1999/xlink" width="83" height="69" viewBox="0 0 83 69"><defs><clipPath id="a"><rect width="83" height="69" transform="translate(1337 8198)" fill="red"/></clipPath></defs><g transform="translate(-1337 -8198)" clip-path="url(#a)"><g transform="translate(1336.137 8191.751)"><path d="M65,30.239a.847.847,0,0,0-.576-1.594c-3.735,1.349-11.188,3.348-11.263,3.367a.841.841,0,0,0-.4.236L47.406,37.9q-.3-1.367-.635-2.776a5.6,5.6,0,0,0,.777-1.948c0-.005.011-.007.016-.012L51.8,28.191a.854.854,0,0,0,.2-.448c.008-.074.947-7.4,5.441-9.451a.848.848,0,0,0-.7-1.542c-4.877,2.226-6.164,9.081-6.384,10.529l-2.9,3.409a6.84,6.84,0,0,0-.705-1.674.8.8,0,0,0-.111-.125c.02-.012.04-.02.059-.032a8.272,8.272,0,0,0,3.792-5.266,10.307,10.307,0,0,0-.834-7.325c.733-1.443,3.8-6.908,8.834-8.359a.847.847,0,1,0-.47-1.628c-5.034,1.451-8.2,6.172-9.457,8.43a7.9,7.9,0,0,0-.827-.8.824.824,0,0,0,.035-.246,9.438,9.438,0,0,0-2.175-5.227.847.847,0,1,0-1.263,1.13,7.355,7.355,0,0,1,1.582,3.217c-.194-.083-.39-.158-.589-.222A3.63,3.63,0,0,0,42.6,9.918l-.021,0c-.036-.006-.068-.016-.1-.021a.865.865,0,0,1-.222,0c-.037,0-.069.015-.1.021l-.02,0a3.63,3.63,0,0,0-2.721,2.645c-.2.064-.4.139-.59.222A7.349,7.349,0,0,1,40.4,9.567a.847.847,0,0,0-1.263-1.13,9.438,9.438,0,0,0-2.175,5.227.822.822,0,0,0,.034.246,7.911,7.911,0,0,0-.827.8c-1.262-2.257-4.423-6.979-9.457-8.43a.847.847,0,0,0-.47,1.628c5.036,1.451,8.1,6.916,8.835,8.359a10.309,10.309,0,0,0-.834,7.326A8.377,8.377,0,0,0,38.1,28.889a.8.8,0,0,0-.112.126,6.84,6.84,0,0,0-.705,1.674l-2.9-3.409c-.22-1.449-1.508-8.3-6.384-10.529a.848.848,0,1,0-.7,1.542c4.481,2.044,5.433,9.378,5.442,9.451a.847.847,0,0,0,.2.447l4.235,4.978c0,.005.011.007.016.012a5.6,5.6,0,0,0,.777,1.948q-.334,1.41-.635,2.776l-5.356-5.655a.841.841,0,0,0-.4-.236c-.075-.02-7.528-2.019-11.263-3.367a.847.847,0,1,0-.576,1.594C23.2,31.493,29.58,33.231,30.9,33.587l5.992,6.326Q36.515,41.7,36.2,43.4c-1.854.073-6.858.518-9.473,3.134a.843.843,0,0,0-.244.518L25.443,57.832l-2.405,3.308a.847.847,0,1,0,1.37,1l2.542-3.495a.84.84,0,0,0,.158-.417l1.029-10.7c2.085-1.855,5.926-2.3,7.745-2.413q-.39,2.21-.682,4.225h0s0,0,0,0c-.294,2.01-.516,3.86-.674,5.54,0,0,0,0,0,.006s0,.014,0,.022c-.412,4.383-.381,7.569.033,9.069a19.1,19.1,0,0,0,1,2.7c.012.024.017.051.032.074.525,1.165,1.1,2.248,1.618,3.189.375.686.73,1.334,1,1.908.558,1.18,2.278,3.4,4.186,3.4a2.428,2.428,0,0,0,.788-.132,6.8,6.8,0,0,0,3.336-3.268c.272-.574.627-1.222,1-1.908.517-.944,1.1-2.03,1.623-3.2a.838.838,0,0,0,.045-.1,19.011,19.011,0,0,0,.982-2.656c.68-2.462.34-9.43-1.327-18.871,1.821.108,5.661.56,7.746,2.416l1.029,10.7a.84.84,0,0,0,.158.417l2.542,3.495a.847.847,0,1,0,1.37-1l-2.405-3.308L58.244,47.047A.843.843,0,0,0,58,46.529c-2.613-2.614-7.618-3.06-9.473-3.133q-.318-1.7-.691-3.483l5.992-6.326C55.145,33.231,61.524,31.493,65,30.239ZM42.363,11.6a1.642,1.642,0,0,1,1.032.788H41.331A1.642,1.642,0,0,1,42.363,11.6ZM35.894,23.217c-1.2-5.259,1.784-8.482,4.328-9.131H44.5c2.544.649,5.531,3.872,4.328,9.13a6.59,6.59,0,0,1-3.021,4.2,6.088,6.088,0,0,1-6.105.42A6.672,6.672,0,0,1,35.894,23.217Zm9.439,11.016a10.705,10.705,0,0,1-5.949-.013,4.007,4.007,0,0,1,.064-4.351.833.833,0,0,0,.094-.276,7.816,7.816,0,0,0,2.84.563,7.679,7.679,0,0,0,2.8-.564.833.833,0,0,0,.094.277A4,4,0,0,1,45.333,34.232Zm.37,3.816a16.96,16.96,0,0,1-6.666-.068c.145-.648.3-1.316.458-1.982a13.724,13.724,0,0,0,3.085.365,10.517,10.517,0,0,0,2.659-.326C45.4,36.714,45.556,37.391,45.7,38.048ZM38.679,39.64a19.867,19.867,0,0,0,4,.415,16.129,16.129,0,0,0,3.386-.347c.282,1.324.542,2.609.776,3.844a28.184,28.184,0,0,1-8.931-.091C38.138,42.233,38.4,40.954,38.679,39.64ZM37.6,45.128a33.774,33.774,0,0,0,5.386.45,22.445,22.445,0,0,0,4.156-.367c.231,1.3.433,2.534.612,3.717-4.021,1.066-8.924.308-10.773-.052C37.161,47.684,37.365,46.438,37.6,45.128Zm8.434,24c-.388.708-.754,1.377-1.047,2a5.265,5.265,0,0,1-2.355,2.39c-.877.3-2.337-1.218-2.893-2.39-.293-.62-.659-1.288-1.047-2-.29-.53-.589-1.091-.885-1.665a31.163,31.163,0,0,0,4.922.4,23.946,23.946,0,0,0,4.164-.355C46.605,68.07,46.315,68.613,46.033,69.128Zm2.5-5.6a16.71,16.71,0,0,1-.739,2.057,26.47,26.47,0,0,1-10.874-.013,16.689,16.689,0,0,1-.733-2.044,10.385,10.385,0,0,1-.253-2.193,45.3,45.3,0,0,0,7.433.68,21.789,21.789,0,0,0,5.417-.613A10.223,10.223,0,0,1,48.536,63.531Zm.075-7.42c.108,1.341.168,2.524.186,3.549-4.383,1.341-11.151.263-12.868-.046.02-1.028.079-2.211.189-3.554a44.329,44.329,0,0,0,7.017.6A25.568,25.568,0,0,0,48.611,56.11ZM48,50.607q.281,2.041.459,3.809c-4.462,1.06-10.166.286-12.182-.051.12-1.176.273-2.447.46-3.806a33.78,33.78,0,0,0,6.254.622A20.776,20.776,0,0,0,48,50.607Z" fill="red"/></g></g></svg>