<svg xmlns="http://www.w3.org/2000/svg" xmlns:xlink="http://www.w3.org/1999/xlink" width="200" height="140" viewBox="0 0 200 140"><defs><clipPath id="a"><rect width="200" height="140" transform="translate(627 5034)" fill="#d30000"/></clipPath></defs><g transform="translate(-627 -5034)" clip-path="url(#a)"><path d="M125.335,95.883c-4-1.732-8.765-7.275-13.787-16.029a132.576,132.576,0,0,1-6.565-13.168,1.722,1.722,0,0,0-2.323-.9L96.91,68.5A66.036,66.036,0,0,0,92.5,55.3l6.131-13.151,17.754-6.488A1.722,1.722,0,1,0,115.2,32.43L96.781,39.161a1.722,1.722,0,0,0-.97.89L90.5,51.449a30.418,30.418,0,0,0-7.211-8.7,14.1,14.1,0,0,0-3.608-8.063,48.062,48.062,0,0,1,7.6-19.811c3.931-5.627,8.328-8.429,12.385-7.891a1.722,1.722,0,1,0,.453-3.413c-5.393-.72-10.955,2.6-15.661,9.333A51.159,51.159,0,0,0,76.58,32.349a7.042,7.042,0,0,0-6.244,0A51.156,51.156,0,0,0,62.46,12.9C57.754,6.163,52.191,2.848,46.8,3.566a1.722,1.722,0,1,0,.453,3.413c4.055-.539,8.453,2.264,12.385,7.891a48.062,48.062,0,0,1,7.6,19.811,14.1,14.1,0,0,0-3.608,8.063,30.433,30.433,0,0,0-7.211,8.7L51.1,40.051a1.722,1.722,0,0,0-.97-.89L31.714,32.43a1.722,1.722,0,1,0-1.182,3.234l17.753,6.488,6.131,13.153a65.858,65.858,0,0,0-4.362,12.988L44.2,65.768a1.722,1.722,0,0,0-2.271.918,132.573,132.573,0,0,1-6.565,13.167c-5.022,8.754-9.789,14.3-13.787,16.029a1.722,1.722,0,1,0,1.369,3.159c9.656-4.184,18.891-23.634,21.468-29.431l4.923,2.126a94.143,94.143,0,0,0-1.519,17.046q0,1.586.113,3.174l-7.513,5.149a1.722,1.722,0,0,0-.658,1.97c.1.285,9.469,28.65-1.454,41.56a1.722,1.722,0,1,0,2.628,2.224c10.911-12.9,4.283-37.719,2.485-43.636l4.956-3.4c1.393,8.888,5.389,17.7,11.767,25.837a67.817,67.817,0,0,0,12.3,12.269,1.722,1.722,0,0,0,2.014,0,67.848,67.848,0,0,0,12.3-12.269c6.378-8.134,10.375-16.949,11.767-25.837l4.958,3.4a91.333,91.333,0,0,0-3.185,15.538c-1.406,12.538.5,21.99,5.667,28.1a1.722,1.722,0,1,0,2.628-2.224c-10.924-12.91-1.55-41.275-1.454-41.56a1.722,1.722,0,0,0-.658-1.97L98.98,91.957q.113-1.587.113-3.174a94.3,94.3,0,0,0-1.474-16.809l4.9-2.31c2.608,5.861,11.817,25.207,21.445,29.379a1.722,1.722,0,1,0,1.369-3.159ZM70.058,36.7a1.727,1.727,0,0,0,.335-.311,4.2,4.2,0,0,1,6.13,0,1.727,1.727,0,0,0,.335.311,10.629,10.629,0,0,1,2.311,3.554,14.2,14.2,0,0,0-11.423,0A10.628,10.628,0,0,1,70.058,36.7Zm3.4,5.8c5.7,0,11.158,4.655,15.369,13.106.729,1.463,1.4,2.958,2.022,4.574-2.73.839-8.935,1.513-17.385,1.513h-.092c-8.434,0-14.6-.676-17.306-1.511.619-1.617,1.293-3.138,2.023-4.6C62.3,47.128,67.758,42.5,73.458,42.5ZM51.266,88.783a90.045,90.045,0,0,1,1.681-17.577,1.724,1.724,0,0,0,.066-.334,71.329,71.329,0,0,1,1.92-7.4c4.39,1.406,12.551,1.7,16.8,1.758v63.673C65.6,123.525,51.266,108.8,51.266,88.783Zm32.857,30.676a69.934,69.934,0,0,1-8.943,9.451V65.232c4.333-.055,12.44-.355,16.8-1.755A71.3,71.3,0,0,1,93.9,70.869a1.709,1.709,0,0,0,.157.88c.009.019.02.036.029.054A90.456,90.456,0,0,1,95.65,88.783c0,13.166-6.269,23.949-11.527,30.676Z" transform="translate(653.542 5030.53)" fill="#d30000"/></g></svg>