<svg xmlns="http://www.w3.org/2000/svg" xmlns:xlink="http://www.w3.org/1999/xlink" width="200" height="140" viewBox="0 0 200 140"><defs><clipPath id="a"><rect width="200" height="140" transform="translate(197 5034)" fill="#d30000"/></clipPath></defs><g transform="translate(-197 -5034)" clip-path="url(#a)"><g transform="translate(222.316 5029.3)"><rect width="4.668" height="4.668" transform="translate(60.681 46.677)" fill="#d30000"/><rect width="4.668" height="4.668" transform="translate(84.019 46.677)" fill="#d30000"/><path d="M84.019,58.347H79.352a4.668,4.668,0,0,1-9.335,0H65.348a9.335,9.335,0,0,0,18.671,0Z" fill="#d30000"/><path d="M123.7,117.114v-1.937a25.5,25.5,0,0,0-18.017-24.482L86.353,84.65V76.528a25.822,25.822,0,0,0,6.488-4.691,25.54,25.54,0,0,0,7.072-13.49h.443a9.335,9.335,0,0,0,3.407-18.017c.07-.117.163-.257.233-.4l.257-.49a7,7,0,0,0-.047-6.348,6.892,6.892,0,0,0-3.874-3.337,25.656,25.656,0,0,0-51.3,0,6.892,6.892,0,0,0-3.874,3.337,7,7,0,0,0-.047,6.348l.233.467c.093.163.187.28.257.42a9.335,9.335,0,0,0,3.407,18.017h.443a25.773,25.773,0,0,0,13.56,18.181V84.65L43.69,90.671a25.544,25.544,0,0,0-18.017,24.506v1.937a6.974,6.974,0,0,0,0,13.163v12.089a2.334,2.334,0,0,0,2.334,2.334h93.355a2.334,2.334,0,0,0,2.334-2.334V130.277a6.974,6.974,0,0,0,0-13.163Zm-23.339-72.77a4.668,4.668,0,1,1,0,9.335ZM49.011,53.679a4.668,4.668,0,1,1,0-9.335ZM93.355,91.721l4.668,1.47V114.36a2.334,2.334,0,0,1-4.668,0Zm-2.521-74.8A21.019,21.019,0,0,1,95.619,28.87L87.66,27.633ZM74.684,9.335A20.953,20.953,0,0,1,87.03,13.373l-4.014,13.56-2.311-.35a38.6,38.6,0,0,0-12.043,0l-2.311.35-4.014-13.56A20.79,20.79,0,0,1,74.684,9.335Zm-16.15,7.585,3.174,10.712L53.749,28.87a20.8,20.8,0,0,1,4.784-11.949ZM49.525,37.832l-.233-.467a2.348,2.348,0,0,1,.023-2.124A2.283,2.283,0,0,1,51.018,34l18.344-2.824a35.881,35.881,0,0,1,10.642,0L98.349,34a2.283,2.283,0,0,1,1.7,1.237,2.348,2.348,0,0,1,.023,2.124l-.233.467a2.381,2.381,0,0,1-2.521,1.26l-17.2-3.127a30.413,30.413,0,0,0-10.876,0l-17.2,3.127a2.381,2.381,0,0,1-2.521-1.26Zm4.154,15.847V43.527l16.407-2.987a26.454,26.454,0,0,1,9.2,0l16.407,2.987V53.679a21,21,0,1,1-42.01,0ZM81.686,78.371v7.982a7,7,0,0,1-14,0V78.348a24.891,24.891,0,0,0,7,1,25.883,25.883,0,0,0,7-.98Zm-21,11.879,2.777-.864a11.616,11.616,0,0,0,22.452,0l2.777.864v17.107H60.681Zm-9.335,2.941,4.668-1.47V114.36a2.334,2.334,0,0,1-4.668,0ZM42.01,140.032H30.34V130.7H42.01Zm0-14h-14a2.334,2.334,0,1,1,0-4.668h14Zm0-11.669v2.334H30.34v-1.517A20.909,20.909,0,0,1,45.09,95.129l1.587-.49v13.14A7.025,7.025,0,0,0,42.01,114.36Zm60.681,25.673H46.677V114.36a7,7,0,1,0,14,0v-2.334H88.687v2.334a7,7,0,1,0,14,0Zm0-32.254V94.639l1.587.513a20.86,20.86,0,0,1,14.75,20.025v1.517H107.358V114.36A7.025,7.025,0,0,0,102.69,107.778Zm16.337,32.254H107.358V130.7h11.669Zm2.334-14h-14v-4.668h14a2.334,2.334,0,0,1,0,4.668Z" fill="#d30000"/></g></g></svg>