<svg xmlns="http://www.w3.org/2000/svg" xmlns:xlink="http://www.w3.org/1999/xlink" width="50" height="50" viewBox="0 0 50 50"><defs><clipPath id="a"><rect width="50" height="50" transform="translate(450 7618)" fill="#fff"/></clipPath></defs><g transform="translate(-450 -7618)" clip-path="url(#a)"><g transform="translate(450 7618.371)"><path d="M8.2,30.859a2.734,2.734,0,1,0,2.734,2.734A2.718,2.718,0,0,0,8.2,30.859Zm0,4.688a1.953,1.953,0,1,1,1.953-1.953A1.934,1.934,0,0,1,8.2,35.547Z" fill="#fff"/><path d="M8.2,29.3a.369.369,0,0,0,.391-.391V25.781a.391.391,0,0,0-.781,0v3.125A.369.369,0,0,0,8.2,29.3Z" fill="#fff"/><path d="M50,24.1c0-1.992-1.523-3.281-3.75-3.281H31.914c.078-.43.2-.859.273-1.289.9-3.867,1.758-7.539,1.172-9.922-.43-1.836-1.055-4.648-3.4-5.7a3.654,3.654,0,0,0-1.68-.391A4.061,4.061,0,0,0,24.8,5.742a7.161,7.161,0,0,0-.586,4.375c.039.352.039.664.078,1.016.039,1.328-3.086,6.875-4.961,10.2-.469.859-.937,1.641-1.289,2.3-.234.2-.9.625-1.68,1.133a3.009,3.009,0,0,0-2.93-2.461H0V45.742H13.4a2.979,2.979,0,0,0,2.813-2.07,4.893,4.893,0,0,1,1.8.234,5.43,5.43,0,0,1,.82.43,5.348,5.348,0,0,0,3.438.977H41.8c2.227,0,3.75-1.367,3.75-3.359a3.712,3.712,0,0,0-.82-2.344,3.774,3.774,0,0,0,2.7-3.594,4.156,4.156,0,0,0-.977-2.617,3.5,3.5,0,0,0,2.383-3.32,4.073,4.073,0,0,0-.977-2.617A3.712,3.712,0,0,0,50,24.1ZM14.844,42.656A1.451,1.451,0,0,1,13.4,44.141H1.563V23.828H13.4a1.476,1.476,0,0,1,1.445,1.484ZM46.289,26.211c-.078-.039-9.57-.039-9.57-.039a.781.781,0,0,0,0,1.563h8.672A2.313,2.313,0,0,1,47.227,30a2.027,2.027,0,0,1-2.187,1.992l-8.047-.039c-.508,0-.7.43-.7.859a.784.784,0,0,0,.781.781h6.758a2.441,2.441,0,0,1,1.992,2.383,2.184,2.184,0,0,1-2.187,2.188H37.148a.8.8,0,0,0-.82.9.759.759,0,0,0,.781.781h5.313a2.192,2.192,0,0,1,1.563,2.109c0,1.328-1.172,1.8-2.187,1.8H22.344a3.926,3.926,0,0,1-2.617-.742,5.086,5.086,0,0,0-1.133-.586,7.113,7.113,0,0,0-2.187-.352V26.563c2.734-1.719,2.852-1.875,2.93-2.07.391-.7.859-1.523,1.328-2.422,2.969-5.234,5.2-9.375,5.156-11.016,0-.352-.039-.7-.078-1.094a5.988,5.988,0,0,1,.391-3.477,2.311,2.311,0,0,1,3.125-1.172c1.641.781,2.148,2.93,2.539,4.648.469,2.031-.352,5.508-1.172,9.219-.156.742-.352,1.484-.508,2.227a.817.817,0,0,0,.156.664.777.777,0,0,0,.625.273H46.211c1.055,0,2.188.469,2.188,1.719A2.083,2.083,0,0,1,46.289,26.211Z" fill="#fff"/></g></g></svg>