<svg xmlns="http://www.w3.org/2000/svg" xmlns:xlink="http://www.w3.org/1999/xlink" width="200" height="140" viewBox="0 0 200 140"><defs><clipPath id="a"><rect width="200" height="140" transform="translate(1008 7639)" fill="red"/></clipPath></defs><g transform="translate(-1008 -7639)" clip-path="url(#a)"><g transform="translate(997.655 7596.931)"><path d="M186.207,86.207H144.828V55.172a6.917,6.917,0,0,0-6.9-6.9H17.241a6.917,6.917,0,0,0-6.9,6.9v96.552a6.917,6.917,0,0,0,6.9,6.9h10.69a20.624,20.624,0,0,0,40.69,0h83.448a20.624,20.624,0,0,0,40.69,0h10.69a6.917,6.917,0,0,0,6.9-6.9V110.345A23.989,23.989,0,0,0,186.207,86.207Zm17.241,24.138v6.9H175.862a3.258,3.258,0,0,1-3.448-3.448V93.1h13.793A17.074,17.074,0,0,1,203.448,110.345ZM17.241,55.172h120.69v82.759H59.655a20.5,20.5,0,0,0-22.759,0H17.241Zm0,89.655h13.1a16.526,16.526,0,0,0-2.414,6.9H17.241Zm31.034,24.138a13.793,13.793,0,1,1,13.793-13.793A13.834,13.834,0,0,1,48.276,168.966Zm89.655-17.241H68.621a23.409,23.409,0,0,0-2.414-6.9h71.724Zm34.483,17.241a13.793,13.793,0,1,1,13.793-13.793A13.834,13.834,0,0,1,172.414,168.966Zm20.345-17.241a20.624,20.624,0,0,0-40.69,0h-7.241V93.1h20.69v20.69a10.16,10.16,0,0,0,10.345,10.345h27.586v27.586Z" fill="red"/><path d="M172.414,144.828a10.345,10.345,0,1,0,10.345,10.345A10.16,10.16,0,0,0,172.414,144.828Zm0,13.793a3.448,3.448,0,1,1,3.448-3.448A3.258,3.258,0,0,1,172.414,158.621Z" fill="red"/><path d="M48.276,144.828a10.345,10.345,0,1,0,10.345,10.345A10.16,10.16,0,0,0,48.276,144.828Zm0,13.793a3.448,3.448,0,1,1,3.448-3.448A3.258,3.258,0,0,1,48.276,158.621Z" fill="red"/><path d="M63.448,108.621a6.667,6.667,0,0,1,0,9.655l4.828,4.828a13.609,13.609,0,0,0,2.069-16.552L85.517,91.379a13,13,0,0,0,16.552-2.069l-4.828-4.828a6.827,6.827,0,0,1-9.655-9.655L82.759,70A13.609,13.609,0,0,0,80.69,86.552L65.517,101.724c-5.172-3.1-12.414-2.414-16.552,2.069l4.828,4.828C56.207,106.207,60.69,106.207,63.448,108.621Z" fill="red"/></g></g></svg>