<svg xmlns="http://www.w3.org/2000/svg" xmlns:xlink="http://www.w3.org/1999/xlink" width="50" height="50" viewBox="0 0 50 50"><defs><clipPath id="a"><rect width="50" height="50" transform="translate(354 7626)" fill="#fff"/></clipPath></defs><g transform="translate(-354 -7626)" clip-path="url(#a)"><g transform="translate(354 7626)"><path d="M41.667,0H8.333A8.333,8.333,0,0,0,0,8.333V41.667A8.333,8.333,0,0,0,8.333,50H41.667A8.333,8.333,0,0,0,50,41.667V8.333A8.333,8.333,0,0,0,41.667,0Zm4.167,41.667a4.167,4.167,0,0,1-4.167,4.167H8.333a4.167,4.167,0,0,1-4.167-4.167V8.333A4.167,4.167,0,0,1,8.333,4.167H41.667a4.167,4.167,0,0,1,4.167,4.167Z" fill="#fff"/><path d="M25,12.5A12.5,12.5,0,1,0,37.5,25,12.5,12.5,0,0,0,25,12.5Zm0,20.833A8.333,8.333,0,1,1,33.333,25,8.333,8.333,0,0,1,25,33.333Z" fill="#fff"/><circle cx="3.125" cy="3.125" r="3.125" transform="translate(35.417 8.333)" fill="#fff"/></g></g></svg>