<svg xmlns="http://www.w3.org/2000/svg" xmlns:xlink="http://www.w3.org/1999/xlink" width="83" height="69" viewBox="0 0 83 69"><defs><clipPath id="a"><rect width="83" height="69" transform="translate(1525 8209)" fill="red"/></clipPath></defs><g transform="translate(-1525 -8209)" clip-path="url(#a)"><path d="M93.045,326.212v-2.121a5.227,5.227,0,0,1,5.227-5.227h4.182a3.136,3.136,0,0,0,0-6.273H87.818a1.045,1.045,0,1,1,0-2.091h14.636a5.227,5.227,0,1,1,0,10.455H98.273a3.136,3.136,0,0,0-3.136,3.136v2.121a17.774,17.774,0,0,1,16.727,17.742,62.3,62.3,0,0,1-.438,7.155,8.365,8.365,0,0,1-3.744,15.845h-.14c-3.208,7.88-7.764,12.547-13.451,12.547s-10.243-4.667-13.451-12.547H80.5a8.365,8.365,0,0,1-3.744-15.845,62.3,62.3,0,0,1-.438-7.155A17.774,17.774,0,0,1,93.045,326.212Zm17.81,26.966-.049-.027a6.274,6.274,0,0,0-9.4,5.44,1.045,1.045,0,1,1-2.091,0A8.371,8.371,0,0,1,109.4,350.4a59.659,59.659,0,0,0,.371-6.45,15.682,15.682,0,1,0-31.364,0,59.659,59.659,0,0,0,.371,6.45,8.371,8.371,0,0,1,10.083,8.187,1.045,1.045,0,1,1-2.091,0,6.275,6.275,0,0,0-9.227-5.535l-.048.025a6.274,6.274,0,0,0,3,11.782,6.357,6.357,0,0,0,.714-.04,1.045,1.045,0,0,1,1.092.661c2.943,7.595,7.018,11.924,11.784,11.924s8.841-4.33,11.784-11.924a1.045,1.045,0,0,1,1.092-.661,6.357,6.357,0,0,0,.714.04,6.274,6.274,0,0,0,3.174-11.685ZM89.909,368a3.136,3.136,0,1,1,3.136-3.136A3.136,3.136,0,0,1,89.909,368Zm0-2.091a1.045,1.045,0,1,0-1.045-1.045A1.045,1.045,0,0,0,89.909,365.909ZM98.273,368a3.136,3.136,0,1,1,3.136-3.136A3.136,3.136,0,0,1,98.273,368Zm0-2.091a1.045,1.045,0,1,0-1.045-1.045A1.045,1.045,0,0,0,98.273,365.909Z" transform="translate(1472.409 7898.5)" fill="red"/></g></svg>