<svg xmlns="http://www.w3.org/2000/svg" xmlns:xlink="http://www.w3.org/1999/xlink" width="50" height="50" viewBox="0 0 50 50"><defs><clipPath id="a"><rect width="50" height="50" transform="translate(606 7626)" fill="#fff"/></clipPath></defs><g transform="translate(-606 -7626)" clip-path="url(#a)"><g transform="translate(606.066 7632.403)"><path d="M43.189,10.137c-.237-1.065-1.144-4.772-2.564-6.192l-.118-.118A10.683,10.683,0,0,0,32.934.158a7.6,7.6,0,0,0-.947-.039c-3.944,0-6.153,2.327-7.77,4.615a17.689,17.689,0,0,0-1.972,4.5,17.477,17.477,0,0,1-2.09,4.654c-1.854,2.524-5.206,3-7.06,3.076H12.74A16.322,16.322,0,0,1,5.4,14.949,17.769,17.769,0,0,1,1.3,11.28L.394,10.216.237,11.6A51.219,51.219,0,0,0,0,18.972,20.346,20.346,0,0,0,6,31.435c3.984,3.786,9.427,5.64,16.723,5.64,11,0,15.935-7.928,17.788-10.925a19.3,19.3,0,0,0,2.524-8.243l6.9-4.378Zm-1.3,7.1v.316a18.69,18.69,0,0,1-2.367,7.967c-1.775,2.84-6.469,10.373-16.8,10.373-6.981,0-12.148-1.735-15.856-5.285a19.185,19.185,0,0,1-5.6-11.714,39.546,39.546,0,0,1,.118-5.8,17.474,17.474,0,0,0,3.51,2.919,17.614,17.614,0,0,0,7.888,2.169h.394c2.051-.079,5.837-.631,7.967-3.55a19.817,19.817,0,0,0,2.248-4.97A18.167,18.167,0,0,1,25.2,5.482c1.538-2.13,3.392-4.1,6.784-4.1a6.686,6.686,0,0,1,.868.039,9.526,9.526,0,0,1,6.823,3.313l.118.118C40.941,6,41.848,9.466,42.085,10.728l.039.276,5.4,2.682Z" fill="#fff"/><path d="M35.34,5.956a3.51,3.51,0,1,0,3.51,3.51A3.518,3.518,0,0,0,35.34,5.956Zm0,5.8a2.331,2.331,0,0,1-2.327-2.327,2.327,2.327,0,1,1,2.327,2.327Z" fill="#fff"/></g></g></svg>