<svg xmlns="http://www.w3.org/2000/svg" xmlns:xlink="http://www.w3.org/1999/xlink" width="90" height="60" viewBox="0 0 90 60"><defs><clipPath id="a"><rect width="90" height="60" transform="translate(1466 7932)"/></clipPath></defs><g transform="translate(-1466 -7932)" clip-path="url(#a)"><g transform="translate(1476.116 7262.678)"><path d="M23.937,681.191a.691.691,0,0,0-.087.022,9.82,9.82,0,0,0-6.083,4.513A10.274,10.274,0,0,0,17,692.659c.978,5.014,4.537,10.56,9.048,15.174s9.979,8.286,15.022,9.331a10.405,10.405,0,0,0,7.042-.719,10.582,10.582,0,0,0,4.862-6.17.7.7,0,0,0-.283-.807l-9.985-6.257a.7.7,0,0,0-.065-.043l-.044-.043h-.022l-.044-.022h-.022a.7.7,0,0,0-.109-.066h-.087a.719.719,0,0,0-.589.153c-.008.014-.015.029-.022.043a.7.7,0,0,0-.109.131l-2.573,2.551c-4.467-2.1-7.782-5.788-10.727-10.77l2.376-2.377.109-.109q.023-.021.044-.043h.022c.008-.014.015-.029.022-.043l.022-.022c.008-.014.015-.029.022-.043s0-.014,0-.022l.022-.022c.008-.014.015-.029.022-.043l.022-.022q0-.022,0-.043t0-.043l.022-.022c0-.014,0-.029,0-.043s0-.014,0-.022,0-.029,0-.043,0-.014,0-.022,0-.029,0-.043,0-.015,0-.022,0-.029,0-.043,0-.014,0-.022-.014-.029-.022-.043,0-.014,0-.022-.014-.029-.022-.043,0-.014,0-.022-.028-.029-.044-.043c0-.007,0-.014,0-.022l-.022-.022a.7.7,0,0,0-.087-.131l-.022-.022-6.126-10.138a.791.791,0,0,0-.719-.327Zm-.174,1.526,5.647,9.353-2.485,2.464a.7.7,0,0,0-.109.85c3.187,5.519,6.9,9.731,12.078,12.013a.7.7,0,0,0,.763-.153l2.638-2.638,9.179,5.734a8.837,8.837,0,0,1-3.99,4.884,9.043,9.043,0,0,1-6.126.589c-4.595-.953-9.952-4.489-14.324-8.961s-7.764-9.881-8.656-14.455a8.866,8.866,0,0,1,.632-6,8.1,8.1,0,0,1,4.753-3.685Z" fill-rule="evenodd"/><path d="M34.884,669.322a29.995,29.995,0,0,0-24.9,46.733L6.462,727.825a.7.7,0,0,0,.9.86l11.528-3.979a30,30,0,1,0,16-55.383Zm0,1.4a28.6,28.6,0,1,1-15.527,52.633.7.7,0,0,0-.607-.074l-10.56,3.644,3.23-10.78a.7.7,0,0,0-.092-.593,28.6,28.6,0,0,1,23.556-44.831Z" fill-rule="evenodd"/></g></g></svg>