<svg xmlns="http://www.w3.org/2000/svg" xmlns:xlink="http://www.w3.org/1999/xlink" width="40" height="40" viewBox="0 0 40 40"><defs><clipPath id="a"><rect width="40" height="40" transform="translate(1124 7886)" fill="red"/></clipPath></defs><g transform="translate(-1124 -7886)" clip-path="url(#a)"><g transform="translate(1120.744 7439.785)"><path d="M15.958,454.127a.464.464,0,0,0-.058.014,6.547,6.547,0,0,0-4.055,3.009,6.849,6.849,0,0,0-.509,4.622c.652,3.343,3.025,7.04,6.032,10.116s6.653,5.524,10.015,6.221a6.937,6.937,0,0,0,4.695-.48,7.054,7.054,0,0,0,3.241-4.113.465.465,0,0,0-.189-.538l-6.657-4.172a.462.462,0,0,0-.044-.029l-.029-.029h-.015l-.029-.014h-.015a.465.465,0,0,0-.073-.044h-.058a.479.479,0,0,0-.392.1l-.015.029a.466.466,0,0,0-.073.087l-1.715,1.7c-2.978-1.4-5.188-3.859-7.151-7.18l1.584-1.584.073-.073.029-.029h.015l.015-.029.015-.014.015-.029s0-.01,0-.014l.015-.014.015-.029.015-.014c0-.01,0-.019,0-.029s0-.019,0-.029l.015-.014q0-.014,0-.029s0-.01,0-.014,0-.019,0-.029,0-.01,0-.014,0-.019,0-.029,0-.01,0-.014,0-.019,0-.029,0-.01,0-.014l-.015-.029s0-.01,0-.014l-.015-.029s0-.01,0-.014l-.029-.029s0-.01,0-.014l-.015-.014a.464.464,0,0,0-.058-.087l-.015-.014-4.084-6.759a.527.527,0,0,0-.48-.218Zm-.116,1.017,3.765,6.236-1.657,1.642a.465.465,0,0,0-.073.567c2.125,3.679,4.6,6.487,8.052,8.009a.465.465,0,0,0,.509-.1l1.759-1.759,6.119,3.823a5.891,5.891,0,0,1-2.66,3.256,6.029,6.029,0,0,1-4.084.392c-3.063-.635-6.635-2.992-9.549-5.974s-5.176-6.588-5.77-9.637a5.91,5.91,0,0,1,.422-4,5.4,5.4,0,0,1,3.169-2.456Z" fill="red" fill-rule="evenodd"/><path d="M23.256,446.215a20,20,0,0,0-16.6,31.156l-2.351,7.846a.465.465,0,0,0,.6.573l7.685-2.652a20,20,0,1,0,10.665-36.922Zm0,.93A19.07,19.07,0,1,1,12.9,482.234a.465.465,0,0,0-.4-.049l-7.04,2.43,2.153-7.187a.465.465,0,0,0-.061-.4,19.069,19.069,0,0,1,15.7-29.887Z" fill="red" fill-rule="evenodd"/></g></g></svg>