<svg xmlns="http://www.w3.org/2000/svg" xmlns:xlink="http://www.w3.org/1999/xlink" width="90" height="60" viewBox="0 0 90 60"><defs><clipPath id="a"><rect width="90" height="60" transform="translate(437 356)" fill="#fff" stroke="#707070" stroke-width="1"/></clipPath></defs><g transform="translate(-437 -356)" clip-path="url(#a)"><g transform="translate(451.318 356)"><path d="M14.841,55.719a30.981,30.981,0,0,0,15.732,4.26c16.878,0,30.79-13.466,30.79-29.989C61.364,13.485,47.471,0,30.573,0,13.727,0,.022,13.453.022,29.989a29.513,29.513,0,0,0,4.357,15.5L0,60ZM3.617,29.989c0-14.6,12.093-26.475,26.957-26.475,15,0,27.2,11.877,27.2,26.475s-12.2,26.475-27.2,26.475a27.31,27.31,0,0,1-14.5-4.134l-.691-.432L5.316,54.8l2.97-9.843-.441-.675A26.041,26.041,0,0,1,3.617,29.989Zm0,0" fill="#fff" stroke="#707070" stroke-width="0.117"/><path d="M14.614,24.463A26.89,26.89,0,0,0,22.1,38.391a27.96,27.96,0,0,0,14.245,7.321c3.57.665,8.81.765,11.37-1.739l1.427-1.4a3.672,3.672,0,0,0,0-5.276L43.435,31.72a3.877,3.877,0,0,0-5.4,0l-1.427,1.4a2.582,2.582,0,0,1-3.4.011l-5.694-5.8L27.5,27.3a2.158,2.158,0,0,1,0-3.1l1.427-1.4a3.67,3.67,0,0,0,0-5.276L23.215,11.95a3.882,3.882,0,0,0-5.4,0l-1.427,1.4h0C14.349,15.344,13.668,19.6,14.614,24.463Zm4.32-8.633c1.5-1.431,1.418-1.459,1.583-1.459a.223.223,0,0,1,.156.063c6.015,5.913,5.773,5.565,5.773,5.735a.209.209,0,0,1-.065.153l-1.427,1.4a5.612,5.612,0,0,0-.015,8.053l5.7,5.8.026.026a6.231,6.231,0,0,0,8.489,0l1.427-1.4a.225.225,0,0,1,.313,0c6.015,5.912,5.773,5.565,5.773,5.734a.208.208,0,0,1-.065.153l-1.427,1.4c-.978.956-4.093,1.528-8.156.772a24.3,24.3,0,0,1-12.376-6.353,23.364,23.364,0,0,1-6.5-12.1C17.371,19.833,17.956,16.787,18.934,15.831Zm0,0" transform="translate(0.323)" fill="#fff" stroke="#707070" stroke-width="0.117"/></g></g></svg>