<svg xmlns="http://www.w3.org/2000/svg" xmlns:xlink="http://www.w3.org/1999/xlink" width="88" height="60" viewBox="0 0 88 60"><defs><clipPath id="a"><rect width="88" height="60" transform="translate(437 356)" fill="#a21e2a" stroke="#707070" stroke-width="1"/></clipPath></defs><g transform="translate(-437 -356)" clip-path="url(#a)"><g transform="translate(451 356)"><path d="M14.512,55.719a29.78,29.78,0,0,0,15.382,4.26A30.154,30.154,0,0,0,60,29.989a29.989,29.989,0,1,0-55.719,15.5L0,60ZM3.536,29.989A26.348,26.348,0,1,1,15.716,52.33L15.04,51.9,5.2,54.8,8.1,44.96l-.432-.675A26.471,26.471,0,0,1,3.536,29.989Zm0,0" fill="#a21e2a"/><path d="M14.6,24.463a27.106,27.106,0,0,0,7.32,13.928,27.107,27.107,0,0,0,13.928,7.321c3.491.665,8.614.765,11.117-1.739l1.4-1.4a3.73,3.73,0,0,0,0-5.276L42.785,31.72a3.731,3.731,0,0,0-5.276,0l-1.4,1.4a2.483,2.483,0,0,1-3.32.011l-5.567-5.8L27.2,27.3a2.192,2.192,0,0,1,0-3.1l1.4-1.4a3.728,3.728,0,0,0,0-5.276L23.015,11.95a3.735,3.735,0,0,0-5.276,0l-1.4,1.4h0C14.345,15.344,13.679,19.6,14.6,24.463Zm4.224-8.633c1.465-1.431,1.387-1.459,1.548-1.459a.216.216,0,0,1,.153.063c5.881,5.913,5.645,5.565,5.645,5.735a.211.211,0,0,1-.063.153l-1.4,1.4a5.7,5.7,0,0,0-.014,8.053l5.571,5.8.026.026a5.994,5.994,0,0,0,8.3,0l1.4-1.4a.217.217,0,0,1,.306,0c5.881,5.912,5.645,5.565,5.645,5.734a.211.211,0,0,1-.063.153l-1.4,1.4c-.956.956-4,1.528-7.975.772a23.557,23.557,0,0,1-12.1-6.353,23.552,23.552,0,0,1-6.353-12.1C17.3,19.833,17.872,16.787,18.829,15.831Zm0,0" fill="#a21e2a"/></g></g></svg>